<?xml version="1.0" encoding="utf-8"?>
<!-- Generator: Adobe Illustrator 25.3.1, SVG Export Plug-In . SVG Version: 6.00 Build 0)  -->
<svg version="1.1" id="Layer_1" xmlns="http://www.w3.org/2000/svg" xmlns:xlink="http://www.w3.org/1999/xlink" x="0px" y="0px"
	 viewBox="0 0 225.78 195.1951" enable-background="new 0 0 225.78 195.1951" xml:space="preserve">
<g>
	<path d="M22.3711,165.0447l54.5684,10.2314c0.7686,0.1436,1.5396,0.2139,2.3047,0.2139c3.708,0,7.2754-1.6533,9.6738-4.585
		c2.8936-3.5371,3.6265-8.3711,1.9111-12.6064l-7.3508-18.1523l-30.8688-9.6235l6.4662,15.9682l-32.0972-6.0186
		c-6.7881-1.2676-13.3174,3.1963-14.5898,9.9824C11.1167,157.24,15.5859,163.7722,22.3711,165.0447z"/>
	<path d="M169.8081,195.1951c3.4385,0,6.8643-1.4111,9.333-4.1807c4.5947-5.1523,4.1426-13.0537-1.0098-17.6484l-53.6846-47.873
		c-1.3301-1.1865-2.8975-2.0742-4.5986-2.6045l-35.2018-10.9739l8.813-12.6088l-46.4703-11.955L36.3336,105.198
		c-0.7373,0.9229-1.353,1.9603-1.8142,3.1012c-0.4382,0.8916-0.6863,1.832-0.7621,2.7759
		c-0.9406,6.0194,2.6271,11.9808,8.6182,13.8485l67.4507,21.0273l51.6665,46.0732
		C163.8764,194.1502,166.8472,195.1951,169.8081,195.1951z"/>
	<path d="M3.5679,14.6599L65.6949,56.02l-7.6972,12.8923l42.2357,10.8653c-0.2132-1.1311-0.4543-1.9687-0.6783-2.5561l2.2601-0.4943
		c0.555,1.5919,0.9375,3.7549,1.1419,6.1261L40.5786,66.8059c-4.2754-1.1021-8.6396,1.4751-9.7407,5.7544
		c-1.1011,4.2788,1.4756,8.6401,5.7544,9.7407l72.2368,18.584c0.6572,0.1694,1.3267,0.2524,1.9927,0.2524
		c1.6045,0,3.1895-0.4829,4.5361-1.4102c1.9062-1.312,3.1514-3.3857,3.4131-5.6851c0.2772-2.4333,1.1478-12.135-1.3007-20.739
		c-0.3883-1.3643-0.8602-2.7003-1.4311-3.976c-0.5447-1.2171-1.1827-2.3757-1.9214-3.4528
		c-3.2227,1.4687-6.7791,2.2865-10.4845,2.2865c-1.7197,0-3.4521-0.1768-5.1504-0.5249
		c-11.2036-2.2996-19.1859-11.6647-20.2533-22.4921L12.4341,1.3416C8.7568-1.1067,3.79-0.1106,1.3418,3.5676
		C-1.1069,7.2454-0.1104,12.2117,3.5679,14.6599z"/>
	<circle cx="103.6095" cy="42.6563" r="22.5"/>
	
		<ellipse transform="matrix(0.3827 -0.9239 0.9239 0.3827 -27.1609 295.2258)" cx="207.3379" cy="167.9375" rx="18.4421" ry="18.4421"/>
</g>
</svg>
